<svg xmlns="http://www.w3.org/2000/svg" xmlns:xlink="http://www.w3.org/1999/xlink" width="500" zoomAndPan="magnify" viewBox="0 0 375 374.999991" height="500" preserveAspectRatio="xMidYMid meet" version="1.0"><defs><clipPath id="df357757f1"><path d="M 118 327 L 151 327 L 151 360 L 118 360 Z M 118 327 " clip-rule="nonzero"/></clipPath><clipPath id="370ca99681"><path d="M 186.589844 -6.128906 L 307.800781 35.769531 L 188.480469 380.980469 L 67.269531 339.082031 Z M 186.589844 -6.128906 " clip-rule="nonzero"/></clipPath><clipPath id="b61971b3d6"><path d="M 186.589844 -6.128906 L 307.800781 35.769531 L 188.480469 380.980469 L 67.269531 339.082031 Z M 186.589844 -6.128906 " clip-rule="nonzero"/></clipPath><clipPath id="b22d2e2070"><path d="M 186.589844 -6.128906 L 307.800781 35.769531 L 188.480469 380.980469 L 67.269531 339.082031 Z M 186.589844 -6.128906 " clip-rule="nonzero"/></clipPath><clipPath id="30131b0850"><path d="M 128 159 L 206 159 L 206 336 L 128 336 Z M 128 159 " clip-rule="nonzero"/></clipPath><clipPath id="5e26d7ea82"><path d="M 186.589844 -6.128906 L 307.800781 35.769531 L 188.480469 380.980469 L 67.269531 339.082031 Z M 186.589844 -6.128906 " clip-rule="nonzero"/></clipPath><clipPath id="84f2cfa090"><path d="M 186.589844 -6.128906 L 307.800781 35.769531 L 188.480469 380.980469 L 67.269531 339.082031 Z M 186.589844 -6.128906 " clip-rule="nonzero"/></clipPath><clipPath id="35efec953d"><path d="M 186.589844 -6.128906 L 307.800781 35.769531 L 188.480469 380.980469 L 67.269531 339.082031 Z M 186.589844 -6.128906 " clip-rule="nonzero"/></clipPath><clipPath id="ed1bba715a"><path d="M 123 6 L 295 6 L 295 344 L 123 344 Z M 123 6 " clip-rule="nonzero"/></clipPath><clipPath id="1c2551f65b"><path d="M 186.589844 -6.128906 L 307.800781 35.769531 L 188.480469 380.980469 L 67.269531 339.082031 Z M 186.589844 -6.128906 " clip-rule="nonzero"/></clipPath><clipPath id="89c9c9da26"><path d="M 186.589844 -6.128906 L 307.800781 35.769531 L 188.480469 380.980469 L 67.269531 339.082031 Z M 186.589844 -6.128906 " clip-rule="nonzero"/></clipPath><clipPath id="86eaddcd63"><path d="M 186.589844 -6.128906 L 307.800781 35.769531 L 188.480469 380.980469 L 67.269531 339.082031 Z M 186.589844 -6.128906 " clip-rule="nonzero"/></clipPath><clipPath id="f3a0467f4c"><path d="M 183 17 L 284 17 L 284 155 L 183 155 Z M 183 17 " clip-rule="nonzero"/></clipPath><clipPath id="50d6ea8f93"><path d="M 186.589844 -6.128906 L 307.800781 35.769531 L 188.480469 380.980469 L 67.269531 339.082031 Z M 186.589844 -6.128906 " clip-rule="nonzero"/></clipPath><clipPath id="62ca375c7b"><path d="M 186.589844 -6.128906 L 307.800781 35.769531 L 188.480469 380.980469 L 67.269531 339.082031 Z M 186.589844 -6.128906 " clip-rule="nonzero"/></clipPath><clipPath id="e0b507cdb5"><path d="M 186.589844 -6.128906 L 307.800781 35.769531 L 188.480469 380.980469 L 67.269531 339.082031 Z M 186.589844 -6.128906 " clip-rule="nonzero"/></clipPath><clipPath id="081a637533"><path d="M 128 286 L 164 286 L 164 336 L 128 336 Z M 128 286 " clip-rule="nonzero"/></clipPath><clipPath id="c746c49f3a"><path d="M 186.589844 -6.128906 L 307.800781 35.769531 L 188.480469 380.980469 L 67.269531 339.082031 Z M 186.589844 -6.128906 " clip-rule="nonzero"/></clipPath><clipPath id="bf8f953d12"><path d="M 186.589844 -6.128906 L 307.800781 35.769531 L 188.480469 380.980469 L 67.269531 339.082031 Z M 186.589844 -6.128906 " clip-rule="nonzero"/></clipPath><clipPath id="0759cc09c1"><path d="M 186.589844 -6.128906 L 307.800781 35.769531 L 188.480469 380.980469 L 67.269531 339.082031 Z M 186.589844 -6.128906 " clip-rule="nonzero"/></clipPath><clipPath id="b4e1d1e38c"><path d="M 190 19 L 281 19 L 281 107 L 190 107 Z M 190 19 " clip-rule="nonzero"/></clipPath><clipPath id="7d7f04350c"><path d="M 186.589844 -6.128906 L 307.800781 35.769531 L 188.480469 380.980469 L 67.269531 339.082031 Z M 186.589844 -6.128906 " clip-rule="nonzero"/></clipPath><clipPath id="bf0f97bc55"><path d="M 186.589844 -6.128906 L 307.800781 35.769531 L 188.480469 380.980469 L 67.269531 339.082031 Z M 186.589844 -6.128906 " clip-rule="nonzero"/></clipPath><clipPath id="9eb416ce33"><path d="M 186.589844 -6.128906 L 307.800781 35.769531 L 188.480469 380.980469 L 67.269531 339.082031 Z M 186.589844 -6.128906 " clip-rule="nonzero"/></clipPath><clipPath id="e1bc7c35df"><path d="M 122 6 L 295 6 L 295 345 L 122 345 Z M 122 6 " clip-rule="nonzero"/></clipPath><clipPath id="0e5fa1a3a9"><path d="M 186.589844 -6.128906 L 307.800781 35.769531 L 188.480469 380.980469 L 67.269531 339.082031 Z M 186.589844 -6.128906 " clip-rule="nonzero"/></clipPath><clipPath id="5560e0cb90"><path d="M 186.589844 -6.128906 L 307.800781 35.769531 L 188.480469 380.980469 L 67.269531 339.082031 Z M 186.589844 -6.128906 " clip-rule="nonzero"/></clipPath><clipPath id="fe7041d4ec"><path d="M 186.589844 -6.128906 L 307.800781 35.769531 L 188.480469 380.980469 L 67.269531 339.082031 Z M 186.589844 -6.128906 " clip-rule="nonzero"/></clipPath><clipPath id="07581b64cd"><path d="M 127 113 L 241 113 L 241 336 L 127 336 Z M 127 113 " clip-rule="nonzero"/></clipPath><clipPath id="3004b18914"><path d="M 186.589844 -6.128906 L 307.800781 35.769531 L 188.480469 380.980469 L 67.269531 339.082031 Z M 186.589844 -6.128906 " clip-rule="nonzero"/></clipPath><clipPath id="c4b8e13879"><path d="M 186.589844 -6.128906 L 307.800781 35.769531 L 188.480469 380.980469 L 67.269531 339.082031 Z M 186.589844 -6.128906 " clip-rule="nonzero"/></clipPath><clipPath id="7ac84f70ec"><path d="M 186.589844 -6.128906 L 307.800781 35.769531 L 188.480469 380.980469 L 67.269531 339.082031 Z M 186.589844 -6.128906 " clip-rule="nonzero"/></clipPath><clipPath id="640a47cc7d"><path d="M 117 63 L 283 63 L 283 361 L 117 361 Z M 117 63 " clip-rule="nonzero"/></clipPath><clipPath id="c49d88355c"><path d="M 186.589844 -6.128906 L 307.800781 35.769531 L 188.480469 380.980469 L 67.269531 339.082031 Z M 186.589844 -6.128906 " clip-rule="nonzero"/></clipPath><clipPath id="da0d6535ca"><path d="M 186.589844 -6.128906 L 307.800781 35.769531 L 188.480469 380.980469 L 67.269531 339.082031 Z M 186.589844 -6.128906 " clip-rule="nonzero"/></clipPath><clipPath id="5040572a68"><path d="M 186.589844 -6.128906 L 307.800781 35.769531 L 188.480469 380.980469 L 67.269531 339.082031 Z M 186.589844 -6.128906 " clip-rule="nonzero"/></clipPath><clipPath id="b008b60f37"><path d="M 133 42 L 280 42 L 280 357 L 133 357 Z M 133 42 " clip-rule="nonzero"/></clipPath><clipPath id="1eada3389c"><path d="M 186.589844 -6.128906 L 307.800781 35.769531 L 188.480469 380.980469 L 67.269531 339.082031 Z M 186.589844 -6.128906 " clip-rule="nonzero"/></clipPath><clipPath id="f94e89a080"><path d="M 186.589844 -6.128906 L 307.800781 35.769531 L 188.480469 380.980469 L 67.269531 339.082031 Z M 186.589844 -6.128906 " clip-rule="nonzero"/></clipPath><clipPath id="b60a5922d9"><path d="M 186.589844 -6.128906 L 307.800781 35.769531 L 188.480469 380.980469 L 67.269531 339.082031 Z M 186.589844 -6.128906 " clip-rule="nonzero"/></clipPath></defs><g clip-path="url(#df357757f1)"><g clip-path="url(#370ca99681)"><g clip-path="url(#b61971b3d6)"><g clip-path="url(#b22d2e2070)"><path fill="#db5275" d="M 149.335938 346.53125 C 145.945312 356.339844 135.332031 361.394531 128.257812 358.949219 C 121.1875 356.503906 115.957031 345.972656 119.347656 336.164062 C 122.230469 327.828125 131.617188 326.3125 138.691406 328.757812 C 145.769531 331.207031 152.21875 338.191406 149.335938 346.53125 Z M 149.335938 346.53125 " fill-opacity="1" fill-rule="nonzero"/></g></g></g></g><g clip-path="url(#30131b0850)"><g clip-path="url(#5e26d7ea82)"><g clip-path="url(#84f2cfa090)"><g clip-path="url(#35efec953d)"><path fill="#f9aabb" d="M 143.878906 335.089844 C 143.824219 335.09375 143.765625 335.097656 143.707031 335.109375 C 138.988281 335.625 134.234375 333.980469 130.84375 330.660156 C 130.800781 330.617188 130.761719 330.578125 130.71875 330.539062 C 128.449219 328.257812 127.90625 324.761719 129.292969 321.851562 C 131.746094 316.707031 136.976562 305.484375 143.460938 290.191406 C 156.96875 258.347656 175.929688 208.835938 186.625 159.71875 L 195.527344 164.347656 L 205.390625 166.207031 C 183.535156 211.304688 167.910156 261.789062 158.855469 295.179688 C 154.464844 311.363281 151.621094 323.539062 150.363281 329.136719 C 149.660156 332.28125 147.074219 334.695312 143.878906 335.089844 Z M 143.878906 335.089844 " fill-opacity="1" fill-rule="nonzero"/></g></g></g></g><g clip-path="url(#ed1bba715a)"><g clip-path="url(#1c2551f65b)"><g clip-path="url(#89c9c9da26)"><g clip-path="url(#86eaddcd63)"><path fill="#eaab57" d="M 274.539062 119.417969 C 277.824219 115.574219 280.457031 111.210938 282.195312 106.621094 C 282.855469 104.867188 280.546875 103.53125 279.34375 104.96875 C 276.46875 108.40625 273.195312 111.457031 269.527344 114.027344 C 255.320312 124.082031 237.652344 126.523438 220.953125 123.238281 C 231.441406 120.726562 252.828125 114.234375 271.632812 99.847656 C 286.507812 88.46875 294.761719 73.335938 294.277344 58.332031 C 293.890625 46.339844 287.898438 35.597656 277.847656 28.886719 C 268.304688 22.507812 257.160156 21.191406 245.628906 25.0625 C 244.859375 25.320312 244.113281 25.601562 243.386719 25.882812 C 242.992188 25.214844 242.578125 24.53125 242.132812 23.855469 C 235.453125 13.679688 225.875 7.84375 214.429688 6.964844 C 202.371094 6.035156 191.03125 10.785156 183.316406 19.984375 C 173.667969 31.484375 170.816406 48.488281 175.488281 66.625 C 181.398438 89.558594 194.214844 107.875 200.914062 116.316406 C 185.726562 108.597656 173.316406 95.753906 168.347656 79.054688 C 167.046875 74.765625 166.359375 70.347656 166.21875 65.867188 C 166.160156 63.996094 163.519531 63.613281 162.957031 65.40625 C 161.488281 70.089844 160.867188 75.148438 161.074219 80.199219 C 161.753906 93.988281 167.757812 106.269531 176.832031 115.976562 C 175.542969 117.113281 174.511719 118.585938 173.910156 120.324219 C 173.480469 121.5625 173.316406 122.820312 173.359375 124.050781 C 169.148438 122.179688 165.070312 119.730469 160.496094 119.664062 C 159.480469 119.644531 158.445312 119.753906 157.519531 120.167969 C 154.863281 121.347656 153.796875 124.8125 154.617188 127.605469 C 155.425781 130.394531 157.675781 132.550781 160.117188 134.128906 C 162.792969 135.871094 165.808594 137.09375 168.949219 137.703125 C 167.734375 138.140625 166.695312 138.90625 165.609375 139.589844 C 164.613281 140.226562 163.671875 140.988281 163.015625 141.972656 C 162.355469 142.957031 162.007812 144.1875 162.265625 145.347656 C 162.582031 146.753906 163.769531 147.851562 165.125 148.351562 C 166.480469 148.855469 167.972656 148.824219 169.394531 148.585938 C 171.859375 148.171875 174.21875 147.140625 176.191406 145.625 C 175.136719 146.730469 173.648438 148.171875 173.089844 149.601562 C 172.535156 151.027344 172.472656 152.714844 173.261719 154.03125 C 174.214844 155.613281 176.167969 156.328125 178.011719 156.425781 C 179.894531 156.53125 181.753906 156.113281 183.488281 155.367188 C 183.441406 160.8125 187.628906 166.273438 194.082031 168.503906 C 200.539062 170.734375 207.203125 169.023438 210.53125 164.714844 C 211.433594 166.371094 212.648438 167.851562 214.183594 168.929688 C 215.695312 169.988281 217.675781 170.632812 219.398438 169.980469 C 220.828125 169.4375 221.824219 168.070312 222.269531 166.601562 C 222.710938 165.136719 222.433594 163.078125 222.285156 161.554688 C 222.898438 163.976562 224.121094 166.242188 225.804688 168.082031 C 226.773438 169.148438 227.9375 170.09375 229.304688 170.535156 C 230.671875 170.976562 232.292969 170.851562 233.410156 169.9375 C 234.328125 169.183594 234.816406 168 234.90625 166.820312 C 234.996094 165.640625 234.722656 164.460938 234.332031 163.34375 C 233.914062 162.132812 233.558594 160.882812 232.875 159.800781 C 235.722656 161.253906 238.851562 162.152344 242.027344 162.441406 C 244.925781 162.699219 248.023438 162.402344 250.382812 160.707031 C 252.742188 159.011719 254.054688 155.632812 252.691406 153.066406 C 252.214844 152.171875 251.46875 151.445312 250.660156 150.828125 C 247.023438 148.066406 242.296875 147.460938 237.835938 146.339844 C 238.628906 145.394531 239.277344 144.304688 239.703125 143.066406 C 240.308594 141.320312 240.40625 139.515625 240.089844 137.824219 C 253.210938 135.78125 265.507812 129.832031 274.539062 119.417969 Z M 195.789062 61.402344 C 192.828125 49.898438 194.128906 39.707031 199.386719 33.441406 C 202.753906 29.425781 207.527344 27.441406 212.835938 27.847656 C 214.132812 27.945312 215.328125 28.199219 216.433594 28.582031 C 225.023438 31.550781 227.828125 41.996094 228.066406 42.957031 L 231.476562 60.089844 L 244.890625 48.78125 C 245.738281 48.125 256.664062 39.914062 266.207031 46.292969 C 270.632812 49.25 273.160156 53.761719 273.332031 59 C 273.597656 67.167969 268.328125 75.992188 258.894531 83.214844 C 243.625 94.894531 225.742188 100.453125 216.839844 102.671875 C 211.195312 95.457031 200.617188 80.140625 195.789062 61.402344 Z M 151.832031 336.261719 C 149.625 342.640625 141.546875 345.644531 133.792969 342.960938 C 126.035156 340.28125 121.535156 332.929688 123.738281 326.550781 C 125.945312 320.171875 134.023438 317.171875 141.78125 319.851562 C 149.535156 322.53125 154.035156 329.882812 151.832031 336.261719 Z M 151.832031 336.261719 " fill-opacity="1" fill-rule="nonzero"/></g></g></g></g><g clip-path="url(#f3a0467f4c)"><g clip-path="url(#50d6ea8f93)"><g clip-path="url(#62ca375c7b)"><g clip-path="url(#e0b507cdb5)"><path fill="#db5275" d="M 265.261719 91.535156 C 241.539062 109.683594 212.847656 114.238281 212.847656 114.238281 C 212.847656 114.238281 193.09375 92.9375 185.640625 64.015625 C 178.1875 35.089844 193.855469 15.886719 213.632812 17.410156 C 233.410156 18.933594 238.285156 40.648438 238.285156 40.648438 C 238.285156 40.648438 255.53125 26.570312 272.023438 37.59375 C 288.519531 48.613281 288.984375 73.386719 265.261719 91.535156 Z M 217.230469 143.023438 C 214.347656 151.363281 206.277344 156.140625 199.210938 153.699219 C 192.140625 151.253906 188.746094 142.511719 191.628906 134.175781 C 194.507812 125.835938 202.578125 121.058594 209.648438 123.5 C 216.714844 125.945312 220.109375 134.6875 217.230469 143.023438 Z M 217.230469 143.023438 " fill-opacity="1" fill-rule="nonzero"/></g></g></g></g><g clip-path="url(#081a637533)"><g clip-path="url(#c746c49f3a)"><g clip-path="url(#bf8f953d12)"><g clip-path="url(#0759cc09c1)"><path fill="#eaab57" d="M 160.4375 299.605469 C 159.484375 299.910156 158.5 300.125 157.492188 300.25 C 153.867188 313.890625 151.484375 324.132812 150.359375 329.128906 C 149.652344 332.269531 147.070312 334.6875 143.875 335.078125 C 143.816406 335.082031 143.761719 335.085938 143.703125 335.097656 C 138.984375 335.613281 134.230469 333.96875 130.835938 330.652344 C 130.796875 330.605469 130.753906 330.566406 130.714844 330.53125 C 128.445312 328.25 127.902344 324.753906 129.289062 321.84375 C 131.488281 317.21875 135.9375 307.691406 141.515625 294.71875 C 140.660156 293.847656 139.894531 292.898438 139.257812 291.878906 C 138.167969 290.121094 138.710938 287.820312 140.472656 286.734375 C 142.234375 285.648438 144.539062 286.195312 145.628906 287.953125 C 146.796875 289.847656 148.867188 291.410156 151.308594 292.253906 C 153.652344 293.0625 156.082031 293.144531 158.136719 292.484375 C 160.109375 291.851562 162.214844 292.929688 162.847656 294.898438 C 163.484375 296.867188 162.40625 298.972656 160.4375 299.605469 Z M 160.4375 299.605469 " fill-opacity="1" fill-rule="nonzero"/></g></g></g></g><g clip-path="url(#b4e1d1e38c)"><g clip-path="url(#7d7f04350c)"><g clip-path="url(#bf0f97bc55)"><g clip-path="url(#9eb416ce33)"><path fill="#f9aabb" d="M 280.457031 59.648438 C 274.089844 61.066406 267.636719 62.453125 261.210938 63.582031 C 260.664062 63.679688 260.273438 63.527344 260.058594 63.269531 C 260.191406 65.230469 259.972656 67.207031 259.449219 69.09375 C 258.703125 71.828125 257.367188 74.359375 255.71875 76.636719 C 254.027344 78.816406 252.097656 80.785156 249.953125 82.5 C 250.132812 82.523438 250.300781 82.613281 250.429688 82.789062 C 252.945312 86.210938 254.945312 90.035156 257.242188 93.609375 C 257.40625 93.863281 257.007812 94.152344 256.816406 93.921875 C 254.121094 90.644531 251.445312 87.304688 248.984375 83.851562 C 248.871094 83.683594 248.832031 83.511719 248.851562 83.34375 C 246.949219 84.769531 244.972656 86.105469 242.914062 87.277344 C 240.515625 88.691406 238.023438 89.925781 235.46875 91.03125 C 233.644531 91.824219 231.785156 92.550781 229.902344 93.199219 C 230.039062 93.285156 230.144531 93.425781 230.203125 93.613281 C 231.460938 97.726562 232.089844 102.046875 233.089844 106.253906 C 233.160156 106.554688 232.699219 106.707031 232.589844 106.414062 C 231.117188 102.367188 229.671875 98.242188 228.484375 94.101562 C 228.433594 93.941406 228.441406 93.804688 228.488281 93.675781 C 228.210938 93.761719 227.941406 93.859375 227.664062 93.945312 C 225.003906 94.773438 222.332031 95.492188 219.550781 95.992188 L 219.136719 96.070312 L 218.855469 95.753906 C 216.867188 93.53125 215.097656 91.183594 213.433594 88.757812 C 213.398438 88.792969 213.359375 88.835938 213.308594 88.863281 C 209.765625 91.351562 205.832031 93.304688 202.160156 95.546875 C 201.898438 95.710938 201.625 95.300781 201.863281 95.113281 C 205.253906 92.460938 208.699219 89.828125 212.257812 87.417969 C 212.328125 87.371094 212.402344 87.339844 212.472656 87.316406 C 212.339844 87.113281 212.199219 86.914062 212.066406 86.710938 C 210.035156 83.535156 208.214844 80.226562 206.679688 76.789062 C 205.429688 73.980469 204.367188 71.097656 203.546875 68.136719 C 203.527344 68.140625 203.515625 68.152344 203.5 68.152344 C 199.410156 69.304688 195.128906 69.820312 190.972656 70.703125 C 190.675781 70.765625 190.546875 70.292969 190.832031 70.195312 C 194.851562 68.835938 198.921875 67.503906 203.019531 66.425781 C 203.046875 66.421875 203.070312 66.421875 203.09375 66.421875 C 203.066406 66.308594 203.027344 66.191406 203.003906 66.082031 C 202.136719 62.378906 201.828125 58.480469 202.460938 54.660156 C 203.042969 51.1875 204.402344 47.714844 206.789062 45 C 206.65625 44.921875 206.523438 44.8125 206.390625 44.664062 C 202.058594 39.757812 198.214844 34.398438 194.101562 29.316406 C 193.808594 28.957031 194.179688 28.632812 194.5 28.972656 C 198.984375 33.714844 203.476562 38.542969 207.742188 43.484375 C 207.832031 43.589844 207.898438 43.699219 207.957031 43.796875 C 210.632812 41.214844 214.308594 39.722656 218.007812 39.566406 C 218.925781 39.585938 219.839844 39.554688 220.757812 39.703125 C 219.703125 33.195312 219.296875 26.554688 218.515625 20.015625 C 218.460938 19.554688 218.941406 19.472656 219.035156 19.933594 C 220.308594 26.398438 221.550781 32.9375 222.53125 39.453125 C 222.566406 39.671875 222.554688 39.859375 222.519531 40.027344 L 223.839844 40.40625 C 225.703125 41.089844 227.433594 42.128906 228.894531 43.457031 C 230.363281 44.773438 231.542969 46.359375 232.507812 48.039062 C 233.25 49.367188 233.851562 50.722656 234.328125 52.167969 C 235.503906 51.378906 236.71875 50.746094 238 50.183594 C 239.671875 49.472656 241.441406 48.976562 243.261719 48.757812 C 246.789062 48.335938 249.476562 49.25 250.945312 50.152344 C 251.074219 50.214844 251.179688 50.28125 251.289062 50.351562 C 251.320312 50.09375 251.46875 49.8125 251.757812 49.539062 C 256.605469 45.054688 261.921875 41.035156 266.945312 36.753906 C 267.300781 36.449219 267.636719 36.8125 267.300781 37.140625 C 262.625 41.777344 257.859375 46.421875 252.976562 50.855469 C 252.78125 51.03125 252.585938 51.140625 252.398438 51.203125 C 252.4375 51.238281 252.488281 51.28125 252.523438 51.316406 C 252.839844 51.617188 252.953125 51.8125 252.898438 51.90625 C 252.835938 51.996094 252.59375 51.988281 252.1875 51.875 C 251.984375 51.820312 251.738281 51.734375 251.449219 51.625 C 251.164062 51.511719 250.847656 51.371094 250.453125 51.28125 C 248.960938 50.742188 246.609375 50.167969 243.476562 50.539062 C 240.230469 50.921875 237.003906 52.371094 234.386719 54.328125 L 233.300781 55.136719 L 232.945312 53.828125 C 232.035156 50.472656 230.265625 47.113281 227.683594 44.757812 C 226.378906 43.578125 224.871094 42.667969 223.238281 42.058594 L 221.976562 41.691406 C 221.558594 41.546875 221.117188 41.546875 220.6875 41.460938 C 219.824219 41.28125 218.933594 41.328125 218.054688 41.304688 C 214.542969 41.449219 211.082031 42.898438 208.648438 45.46875 C 206.117188 47.957031 204.675781 51.417969 204.054688 54.949219 C 203.445312 58.507812 203.695312 62.203125 204.507812 65.769531 C 205.316406 69.34375 206.535156 72.851562 208.003906 76.234375 C 209.480469 79.617188 211.234375 82.882812 213.199219 86.023438 C 215.125 89.089844 217.25 92.0625 219.605469 94.777344 C 222.203125 94.320312 224.796875 93.667969 227.339844 92.898438 C 229.960938 92.113281 232.542969 91.183594 235.066406 90.109375 C 237.597656 89.050781 240.066406 87.859375 242.441406 86.488281 C 244.839844 85.164062 247.117188 83.625 249.296875 81.96875 C 251.457031 80.296875 253.410156 78.359375 255.109375 76.214844 C 256.734375 74.019531 258.050781 71.578125 258.808594 68.949219 C 259.566406 66.332031 259.730469 63.511719 259.117188 60.847656 C 258.515625 58.179688 257.128906 55.6875 255.171875 53.761719 C 254.515625 53.027344 253.898438 52.613281 253.546875 52.253906 C 253.179688 51.914062 253.019531 51.710938 253.054688 51.660156 C 253.089844 51.605469 253.324219 51.703125 253.753906 51.972656 C 254.171875 52.25 254.851562 52.628906 255.539062 53.382812 C 257.578125 55.351562 259.042969 57.917969 259.699219 60.691406 C 259.835938 61.253906 259.933594 61.828125 259.996094 62.402344 C 260.140625 62.144531 260.4375 61.929688 260.902344 61.835938 C 267.332031 60.632812 273.917969 60.082031 280.386719 59.148438 C 280.824219 59.070312 280.910156 59.554688 280.457031 59.648438 Z M 280.457031 59.648438 " fill-opacity="1" fill-rule="nonzero"/></g></g></g></g><g clip-path="url(#e1bc7c35df)"><g clip-path="url(#0e5fa1a3a9)"><g clip-path="url(#5560e0cb90)"><g clip-path="url(#fe7041d4ec)"><path fill="#56091f" d="M 239.222656 40.140625 C 239.242188 40.234375 239.277344 40.324219 239.296875 40.421875 L 238.980469 40.308594 C 238.777344 40.460938 238.566406 40.59375 238.367188 40.746094 L 238.207031 40.875 L 238.15625 40.675781 C 238.089844 40.429688 238.023438 40.191406 237.953125 39.957031 L 237.636719 39.84375 C 237.710938 39.785156 237.800781 39.734375 237.875 39.675781 C 236.707031 35.660156 234.851562 31.835938 232.425781 28.441406 C 231.09375 26.621094 229.589844 24.917969 227.878906 23.449219 C 226.167969 21.988281 224.265625 20.746094 222.234375 19.796875 C 218.15625 17.886719 213.554688 17.265625 209.109375 17.667969 C 204.644531 18.070312 200.308594 19.660156 196.671875 22.265625 C 193.035156 24.863281 190.089844 28.40625 188.105469 32.414062 C 186.101562 36.425781 184.921875 40.839844 184.527344 45.328125 C 184.300781 47.566406 184.28125 49.839844 184.40625 52.101562 C 184.496094 54.363281 184.816406 56.621094 185.1875 58.863281 C 185.421875 59.980469 185.601562 61.101562 185.894531 62.210938 L 186.300781 63.878906 L 186.789062 65.527344 L 187.761719 68.832031 C 188.113281 69.925781 188.523438 71.011719 188.898438 72.097656 C 191.609375 79.703125 195.140625 87.027344 199.3125 93.972656 C 201.371094 97.460938 203.617188 100.839844 205.980469 104.128906 C 208.253906 107.265625 210.648438 110.363281 213.207031 113.226562 C 216.140625 112.683594 219.113281 111.96875 222.023438 111.160156 C 225.105469 110.3125 228.167969 109.359375 231.179688 108.296875 C 237.214844 106.167969 243.109375 103.644531 248.757812 100.691406 C 254.621094 97.617188 260.238281 94.042969 265.441406 89.980469 C 270.582031 85.902344 275.117188 81.007812 278.304688 75.339844 C 279.898438 72.519531 281.152344 69.507812 281.902344 66.378906 C 282.3125 64.828125 282.53125 63.230469 282.691406 61.640625 C 282.804688 60.050781 282.820312 58.449219 282.671875 56.859375 C 282.367188 53.691406 281.53125 50.566406 280.082031 47.738281 C 278.675781 44.886719 276.667969 42.355469 274.320312 40.207031 C 273.808594 39.761719 273.386719 39.386719 273.035156 39.074219 C 272.675781 38.78125 272.402344 38.539062 272.207031 38.351562 C 271.820312 37.980469 271.757812 37.816406 271.960938 37.847656 C 272.355469 37.921875 273.925781 38.691406 275.808594 40.445312 C 279.386719 43.753906 282.011719 48.113281 283.238281 52.867188 C 284.476562 57.625 284.339844 62.699219 283.09375 67.449219 C 281.84375 72.210938 279.566406 76.671875 276.667969 80.632812 C 273.75 84.597656 270.246094 88.113281 266.390625 91.15625 C 265.445312 91.945312 264.429688 92.632812 263.441406 93.359375 C 262.4375 94.066406 261.476562 94.832031 260.441406 95.488281 C 258.375 96.816406 256.339844 98.1875 254.195312 99.378906 C 252.09375 100.648438 249.894531 101.757812 247.722656 102.890625 C 246.632812 103.445312 245.503906 103.941406 244.398438 104.480469 L 242.734375 105.265625 L 241.042969 105.988281 C 236.539062 107.945312 231.925781 109.652344 227.238281 111.105469 C 222.546875 112.5625 217.804688 113.8125 212.949219 114.683594 L 212.703125 114.726562 L 212.539062 114.542969 C 209.289062 110.902344 206.359375 107.046875 203.59375 103.058594 C 200.828125 99.078125 198.285156 94.953125 195.957031 90.707031 C 194.753906 88.601562 193.71875 86.414062 192.617188 84.261719 C 191.640625 82.046875 190.558594 79.882812 189.691406 77.621094 C 187.800781 73.167969 186.367188 68.539062 185.074219 63.890625 C 184.128906 60.207031 183.460938 56.324219 183.238281 52.3125 C 182.992188 48.300781 183.261719 44.160156 184.148438 40.058594 C 184.617188 38.011719 185.242188 35.976562 186.046875 33.992188 C 186.878906 32.023438 187.898438 30.101562 189.121094 28.300781 C 191.542969 24.6875 194.875 21.582031 198.796875 19.46875 C 202.71875 17.339844 207.207031 16.242188 211.6875 16.253906 C 216.152344 16.261719 220.699219 17.320312 224.605469 19.5625 C 226.558594 20.671875 228.347656 22.042969 229.941406 23.585938 C 231.527344 25.128906 232.914062 26.851562 234.132812 28.667969 C 235.351562 30.472656 236.371094 32.394531 237.238281 34.347656 C 237.894531 35.859375 238.46875 37.371094 238.933594 38.949219 C 241.183594 37.414062 243.511719 36.183594 245.941406 35.179688 C 248.824219 34.015625 251.800781 33.191406 254.796875 32.894531 C 260.777344 32.226562 266.679688 33.78125 271.050781 36.835938 C 271.953125 37.457031 272.171875 37.738281 271.890625 37.679688 C 271.75 37.65625 271.480469 37.539062 271.105469 37.34375 C 270.730469 37.144531 270.25 36.859375 269.652344 36.550781 C 264.765625 33.777344 258.914062 33.03125 253.460938 34.035156 C 250.710938 34.507812 248.0625 35.398438 245.53125 36.527344 C 243.296875 37.535156 241.175781 38.742188 239.222656 40.140625 Z M 190.242188 143.425781 C 190.871094 147.136719 192.835938 150.773438 196.0625 152.972656 C 197.660156 154.074219 199.523438 154.78125 201.449219 155.035156 C 203.375 155.289062 205.351562 155.070312 207.175781 154.464844 C 210.847656 153.261719 213.867188 150.617188 215.855469 147.449219 C 216.242188 146.792969 216.578125 146.210938 216.769531 145.660156 C 216.984375 145.125 217.144531 144.664062 217.199219 144.273438 C 217.347656 143.5 217.316406 143.070312 217.144531 142.996094 C 216.972656 142.917969 216.671875 143.1875 216.28125 143.8125 C 216.101562 144.132812 215.859375 144.515625 215.570312 144.984375 C 215.308594 145.464844 214.957031 146 214.574219 146.621094 C 212.703125 149.519531 209.921875 151.882812 206.65625 152.9375 C 205.03125 153.46875 203.308594 153.660156 201.628906 153.441406 C 199.949219 153.226562 198.320312 152.625 196.914062 151.671875 C 194.078125 149.773438 192.253906 146.550781 191.625 143.160156 C 190.988281 139.742188 191.515625 136.148438 192.898438 132.945312 C 194.332031 129.765625 196.683594 126.96875 199.707031 125.257812 C 201.214844 124.402344 202.871094 123.828125 204.578125 123.640625 C 206.28125 123.445312 208.019531 123.644531 209.632812 124.234375 C 212.882812 125.386719 215.394531 128.164062 216.605469 131.417969 C 217.867188 134.671875 217.886719 138.351562 216.972656 141.722656 C 216.535156 143.195312 216.90625 143.339844 217.363281 141.835938 C 218.316406 138.414062 218.355469 134.65625 217.109375 131.273438 C 216.492188 129.589844 215.578125 127.996094 214.363281 126.660156 C 213.144531 125.320312 211.621094 124.246094 209.925781 123.589844 C 208.230469 122.925781 206.363281 122.660156 204.53125 122.828125 C 202.695312 122.984375 200.90625 123.558594 199.273438 124.429688 C 196.007812 126.179688 193.421875 129.097656 191.824219 132.460938 C 190.265625 135.824219 189.605469 139.683594 190.242188 143.425781 Z M 294.839844 60.71875 C 295.160156 49.722656 290.628906 38.996094 282.378906 31.679688 C 277.890625 27.699219 272.472656 24.722656 266.632812 23.308594 C 260.507812 21.824219 254.082031 22.105469 248.023438 23.746094 C 246.53125 24.148438 245.066406 24.648438 243.625 25.195312 C 240.355469 19.757812 236.019531 14.957031 230.601562 11.589844 C 225.367188 8.332031 219.3125 6.59375 213.164062 6.324219 C 202.101562 5.832031 191.246094 10.3125 183.820312 18.542969 C 175.671875 27.585938 172.378906 39.882812 172.761719 51.867188 C 173.175781 64.96875 177.75 77.839844 183.417969 89.539062 C 187.738281 98.449219 192.984375 106.917969 199.003906 114.78125 C 199.507812 115.4375 200.019531 116.089844 200.53125 116.734375 C 200.976562 117.296875 201.757812 116.492188 201.316406 115.925781 C 195.820312 108.984375 190.960938 101.519531 186.800781 93.707031 C 183.976562 88.402344 181.484375 82.921875 179.417969 77.277344 C 177.152344 71.109375 175.277344 64.730469 174.417969 58.210938 C 172.832031 46.300781 174.523438 33.636719 181.347656 23.515625 C 187.476562 14.433594 197.433594 8.429688 208.398438 7.53125 C 214.289062 7.050781 220.347656 7.925781 225.773438 10.308594 C 231.503906 12.828125 236.390625 16.949219 240.121094 21.949219 C 241.128906 23.304688 242.050781 24.714844 242.910156 26.167969 C 243.023438 26.363281 243.324219 26.507812 243.550781 26.421875 C 249.5 24.082031 255.953125 22.917969 262.347656 23.671875 C 268.359375 24.378906 274.058594 26.753906 278.9375 30.332031 C 287.722656 36.773438 293.1875 46.925781 293.691406 57.804688 C 294.25 69.753906 289.046875 81.160156 281.324219 90.050781 C 273.011719 99.621094 261.804688 106.625 250.488281 112.117188 C 241.863281 116.300781 232.808594 119.609375 223.535156 122.03125 C 222.761719 122.230469 221.984375 122.429688 221.207031 122.621094 C 220.507812 122.789062 220.824219 123.871094 221.523438 123.695312 C 230.582031 121.492188 239.4375 118.417969 247.914062 114.5625 C 253.535156 112.007812 258.992188 109.082031 264.195312 105.757812 C 269.890625 102.113281 275.34375 98.027344 280.027344 93.140625 C 288.417969 84.378906 294.480469 73.007812 294.839844 60.71875 Z M 151.285156 336.128906 C 149.449219 341.25 143.902344 343.597656 138.761719 343.367188 C 133.175781 343.113281 127.539062 339.96875 124.976562 334.910156 C 123.675781 332.347656 123.371094 329.433594 124.277344 326.691406 C 124.507812 326.003906 123.410156 325.734375 123.191406 326.417969 C 121.328125 332.019531 124.34375 337.757812 128.882812 341.050781 C 133.828125 344.636719 140.816406 345.691406 146.390625 342.972656 C 149.171875 341.613281 151.324219 339.316406 152.371094 336.398438 C 152.621094 335.71875 151.523438 335.453125 151.285156 336.128906 Z M 151.285156 336.128906 " fill-opacity="1" fill-rule="nonzero"/></g></g></g></g><g clip-path="url(#07581b64cd)"><g clip-path="url(#3004b18914)"><g clip-path="url(#c4b8e13879)"><g clip-path="url(#7ac84f70ec)"><path fill="#db5275" d="M 211.023438 164.433594 C 211.359375 165.070312 210.398438 165.648438 210.066406 165.011719 C 209.355469 163.671875 208.84375 162.261719 208.476562 160.804688 C 204.640625 162.089844 200.464844 162.238281 196.621094 160.871094 C 192.824219 159.519531 189.730469 156.898438 187.53125 153.566406 C 186.363281 154.46875 185.132812 155.253906 183.769531 155.859375 C 183.113281 156.148438 182.535156 155.1875 183.1875 154.898438 C 184.667969 154.246094 186.007812 153.394531 187.257812 152.367188 C 187.53125 152.140625 187.929688 152.136719 188.136719 152.476562 C 190.242188 155.878906 193.347656 158.605469 197.179688 159.890625 C 200.964844 161.160156 204.988281 160.929688 208.707031 159.5625 C 208.980469 159.464844 209.339844 159.660156 209.40625 159.945312 C 209.765625 161.503906 210.265625 163.007812 211.023438 164.433594 Z M 227.738281 130.492188 C 228.949219 130.15625 230.222656 130.066406 231.484375 130.21875 C 232.738281 130.375 233.988281 130.773438 235.113281 131.394531 C 236.242188 132.011719 237.257812 132.863281 238.089844 133.886719 C 239.019531 135.03125 239.507812 136.070312 239.777344 136.773438 C 239.917969 137.132812 239.988281 137.402344 240.039062 137.585938 C 240.066406 137.707031 240.085938 137.785156 240.109375 137.863281 C 240.09375 137.785156 240.078125 137.699219 240.054688 137.582031 C 240.023438 137.398438 239.980469 137.113281 239.894531 136.742188 C 239.71875 136.007812 239.417969 134.867188 238.582031 133.542969 C 237.832031 132.363281 236.835938 131.332031 235.664062 130.53125 C 234.484375 129.726562 233.136719 129.15625 231.71875 128.875 C 230.296875 128.589844 228.804688 128.597656 227.367188 128.90625 C 226.386719 129.105469 225.445312 129.46875 224.550781 129.933594 C 223.855469 127.035156 222.589844 124.230469 220.734375 121.832031 C 218.617188 119.074219 215.65625 116.886719 212.320312 115.773438 C 208.992188 114.628906 205.324219 114.574219 201.984375 115.460938 C 198.980469 116.25 196.226562 117.746094 193.875 119.671875 C 193.34375 118.414062 192.585938 117.265625 191.644531 116.296875 C 190.4375 115.066406 188.933594 114.140625 187.328125 113.617188 C 185.71875 113.09375 183.996094 112.941406 182.355469 113.21875 C 180.707031 113.492188 179.148438 114.148438 177.84375 115.113281 C 177.488281 115.386719 177.230469 115.597656 177.066406 115.753906 C 176.929688 115.875 176.871094 115.933594 176.816406 115.976562 C 176.871094 115.933594 176.9375 115.875 177.070312 115.765625 C 177.238281 115.617188 177.507812 115.417969 177.871094 115.164062 C 179.222656 114.261719 180.785156 113.683594 182.394531 113.496094 C 184.003906 113.300781 185.652344 113.53125 187.15625 114.105469 C 188.660156 114.679688 190.023438 115.617188 191.082031 116.824219 C 191.988281 117.847656 192.660156 119.0625 193.078125 120.355469 C 193.074219 120.363281 193.066406 120.367188 193.054688 120.371094 L 193.078125 120.378906 C 193.144531 120.59375 193.222656 120.800781 193.277344 121.015625 L 193.378906 121.425781 L 193.71875 121.15625 C 193.894531 121.011719 194.074219 120.882812 194.257812 120.746094 L 194.265625 120.75 C 194.265625 120.75 194.257812 120.738281 194.257812 120.738281 C 196.664062 118.910156 199.421875 117.558594 202.339844 116.9375 C 205.464844 116.253906 208.75 116.445312 211.699219 117.542969 C 214.660156 118.625 217.234375 120.597656 219.140625 123.078125 C 221.066406 125.554688 222.347656 128.515625 223.027344 131.609375 L 223.320312 132.945312 L 224.40625 132.140625 C 225.398438 131.394531 226.527344 130.808594 227.738281 130.492188 Z M 185.785156 119.386719 C 183.824219 118.589844 181.316406 119.179688 180.085938 120.953125 C 179.480469 121.808594 179.160156 122.890625 179.324219 123.929688 C 179.480469 124.949219 180.050781 125.929688 180.972656 126.40625 C 181.296875 126.566406 181.589844 126.453125 181.667969 126.292969 C 181.761719 126.117188 181.699219 125.914062 181.492188 125.75 C 181.011719 125.359375 180.742188 124.738281 180.652344 124.105469 C 180.5625 123.464844 180.695312 122.875 181.003906 122.277344 C 181.316406 121.699219 181.777344 121.238281 182.367188 120.929688 C 182.957031 120.617188 183.664062 120.480469 184.347656 120.542969 C 185.875 120.683594 187.320312 121.816406 187.9375 123.335938 C 188.589844 124.851562 188.402344 126.679688 187.441406 128.089844 C 186.667969 129.269531 185.347656 130.066406 183.902344 130.398438 C 182.457031 130.730469 180.882812 130.589844 179.414062 130.136719 C 177.949219 129.699219 176.613281 128.796875 175.582031 127.640625 C 174.554688 126.484375 173.832031 124.96875 173.898438 123.429688 C 173.910156 123.097656 173.539062 122.976562 173.445312 123.269531 C 172.964844 124.589844 173.300781 126.320312 174.1875 127.726562 C 175.074219 129.144531 176.4375 130.316406 178.09375 131.023438 C 179.726562 131.683594 181.472656 131.957031 183.179688 131.753906 C 184.882812 131.550781 186.429688 130.835938 187.554688 129.804688 C 189.125 128.378906 189.917969 126.167969 189.546875 124.082031 C 189.214844 122.011719 187.777344 120.121094 185.785156 119.386719 Z M 178.417969 133.617188 C 177.457031 133.710938 176.570312 134.355469 175.738281 134.789062 C 174.824219 135.253906 173.886719 135.675781 172.933594 136.035156 C 171.996094 136.382812 171.042969 136.6875 170.082031 136.949219 C 169.574219 137.089844 169.0625 137.214844 168.550781 137.320312 C 168.097656 137.417969 167.578125 137.476562 167.28125 137.855469 C 167.164062 138.007812 167.253906 138.234375 167.394531 138.332031 C 167.789062 138.601562 168.371094 138.4375 168.808594 138.359375 C 169.324219 138.261719 169.839844 138.15625 170.347656 138.03125 C 171.371094 137.78125 172.375 137.457031 173.355469 137.082031 C 174.3125 136.714844 175.253906 136.304688 176.164062 135.84375 C 177.035156 135.410156 178.152344 134.917969 178.660156 134.039062 C 178.769531 133.855469 178.632812 133.59375 178.417969 133.617188 Z M 181.40625 140.894531 C 180.640625 141.074219 180.058594 141.703125 179.46875 142.1875 C 178.886719 142.683594 178.296875 143.183594 177.710938 143.6875 C 176.515625 144.707031 175.3125 145.691406 174.296875 146.890625 C 174.132812 147.089844 174.410156 147.390625 174.621094 147.257812 C 175.957031 146.445312 177.109375 145.425781 178.304688 144.4375 C 178.902344 143.949219 179.5 143.449219 180.097656 142.960938 C 180.683594 142.480469 181.402344 142.03125 181.726562 141.320312 C 181.839844 141.089844 181.675781 140.828125 181.40625 140.894531 Z M 233.941406 148.074219 C 235.507812 147.800781 237.085938 147.195312 238.328125 145.996094 C 238.605469 145.710938 238.382812 145.417969 238.109375 145.570312 C 236.949219 146.246094 235.722656 146.605469 234.414062 146.820312 C 233.109375 147.015625 231.667969 147.058594 230.335938 146.792969 C 228.96875 146.503906 227.546875 145.964844 226.4375 145.140625 C 225.320312 144.316406 224.484375 143.140625 224.21875 141.917969 C 223.832031 140.214844 224.414062 138.28125 225.730469 137.082031 C 227.035156 135.851562 228.992188 135.34375 230.710938 135.871094 C 232.417969 136.34375 233.769531 137.976562 233.757812 139.757812 C 233.75 140.644531 233.464844 141.542969 232.855469 142.203125 C 232.257812 142.859375 231.375 143.324219 230.464844 143.261719 C 230.144531 143.238281 229.886719 143.304688 229.753906 143.457031 C 229.625 143.597656 229.667969 143.863281 230.128906 144.039062 C 231.230469 144.429688 232.449219 144.113281 233.347656 143.480469 C 234.28125 142.855469 234.941406 141.761719 235.144531 140.675781 C 235.378906 139.582031 235.207031 138.378906 234.699219 137.378906 C 234.195312 136.378906 233.40625 135.570312 232.453125 135.035156 C 230.386719 133.851562 227.796875 134.042969 225.90625 135.242188 C 224.957031 135.832031 224.15625 136.664062 223.625 137.652344 C 223.097656 138.632812 222.835938 139.730469 222.855469 140.8125 C 222.878906 142.65625 223.773438 144.304688 224.964844 145.46875 C 226.171875 146.644531 227.671875 147.371094 229.195312 147.824219 C 230.746094 148.289062 232.371094 148.328125 233.941406 148.074219 Z M 234.121094 160.960938 C 234.128906 160.503906 233.742188 160.132812 233.464844 159.808594 C 233.148438 159.421875 232.832031 159.027344 232.535156 158.628906 C 231.914062 157.804688 231.339844 156.949219 230.804688 156.070312 C 230.285156 155.207031 229.816406 154.324219 229.390625 153.417969 C 228.992188 152.558594 228.699219 151.460938 227.996094 150.789062 C 227.851562 150.65625 227.558594 150.703125 227.53125 150.921875 C 227.394531 151.90625 227.917969 152.917969 228.316406 153.785156 C 228.761719 154.761719 229.265625 155.710938 229.820312 156.628906 C 230.355469 157.527344 230.953125 158.390625 231.59375 159.214844 C 231.917969 159.628906 232.253906 160.03125 232.59375 160.425781 C 232.90625 160.777344 233.265625 161.257812 233.777344 161.292969 C 233.953125 161.304688 234.117188 161.132812 234.121094 160.960938 Z M 221.832031 156.816406 C 221.675781 156.054688 221.597656 155.246094 221.101562 154.621094 C 220.964844 154.449219 220.667969 154.550781 220.613281 154.746094 C 220.417969 155.519531 220.699219 156.3125 220.871094 157.058594 C 221.035156 157.816406 221.207031 158.5625 221.367188 159.3125 C 221.699219 160.847656 221.980469 162.375 222.527344 163.855469 C 222.613281 164.089844 223.015625 164 223.007812 163.753906 C 222.953125 162.167969 222.605469 160.636719 222.292969 159.085938 C 222.140625 158.332031 221.992188 157.574219 221.832031 156.816406 Z M 150.324219 326.753906 C 149.984375 328.246094 149.761719 329.78125 148.976562 331.109375 C 148.308594 332.25 147.320312 333.183594 146.148438 333.796875 C 143.546875 335.15625 140.058594 334.757812 137.367188 333.921875 C 134.625 333.0625 131.53125 331.304688 130.046875 328.746094 C 129.378906 327.605469 129.066406 326.289062 129.097656 324.960938 C 129.144531 323.359375 129.832031 322.015625 130.5 320.601562 C 130.808594 319.945312 129.832031 319.394531 129.519531 320.046875 C 128.425781 322.363281 127.589844 324.511719 128.191406 327.101562 C 128.769531 329.574219 130.511719 331.371094 132.535156 332.78125 C 134.835938 334.394531 137.554688 335.378906 140.347656 335.664062 C 142.855469 335.921875 145.511719 335.707031 147.617188 334.203125 C 148.628906 333.476562 149.476562 332.527344 150.078125 331.429688 C 150.828125 330.066406 151.0625 328.515625 151.40625 327.019531 C 151.574219 326.324219 150.488281 326.050781 150.324219 326.753906 Z M 162.136719 299.273438 C 160.589844 300.632812 157.972656 300.867188 156.003906 300.953125 C 153.535156 301.058594 151.066406 300.65625 148.730469 299.875 C 146.214844 298.980469 143.871094 297.671875 141.882812 295.882812 C 140.273438 294.433594 138.140625 292.261719 138.132812 289.949219 C 138.125 285.804688 143.558594 284.128906 145.953125 287.449219 C 147.523438 289.625 149.433594 291.15625 152.054688 291.910156 C 153.285156 292.265625 154.574219 292.433594 155.855469 292.351562 C 156.964844 292.277344 158 291.804688 159.105469 291.75 C 163.078125 291.574219 165.101562 296.671875 162.136719 299.273438 Z M 160.929688 293.324219 C 159.324219 292.355469 157.589844 293.355469 155.898438 293.46875 C 152.175781 293.710938 148.160156 292.085938 145.8125 289.160156 C 145.226562 288.425781 144.832031 287.59375 143.964844 287.125 C 143.203125 286.714844 142.296875 286.628906 141.46875 286.898438 C 139.558594 287.519531 138.726562 289.742188 139.675781 291.488281 C 141.597656 294.984375 145.328125 297.484375 149.003906 298.789062 C 151.253906 299.542969 153.597656 299.941406 155.976562 299.835938 C 157.84375 299.753906 160.703125 299.570312 161.882812 297.894531 C 162.941406 296.402344 162.488281 294.265625 160.929688 293.324219 Z M 204.128906 169.464844 C 204.828125 169.28125 204.515625 168.207031 203.8125 168.390625 C 197.523438 170.035156 190.378906 167.578125 186.476562 162.367188 C 186.050781 161.792969 185.082031 162.367188 185.515625 162.945312 C 189.730469 168.566406 197.3125 171.242188 204.128906 169.464844 Z M 204.128906 169.464844 " fill-opacity="1" fill-rule="nonzero"/></g></g></g></g><g clip-path="url(#640a47cc7d)"><g clip-path="url(#c49d88355c)"><g clip-path="url(#da0d6535ca)"><g clip-path="url(#5040572a68)"><path fill="#56091f" d="M 281.90625 108.808594 C 281.445312 109.867188 280.9375 110.902344 280.390625 111.917969 C 272.441406 126.59375 256.855469 135.613281 240.710938 138.277344 C 241.039062 141.035156 240.378906 143.703125 238.792969 145.972656 C 242.238281 146.785156 245.796875 147.394531 248.945312 149.054688 C 251.339844 150.308594 253.75 152.273438 253.816406 155.195312 C 253.875 157.644531 252.453125 159.996094 250.453125 161.332031 C 248.097656 162.902344 245.113281 163.214844 242.347656 163.003906 C 239.492188 162.792969 236.707031 162.074219 234.078125 160.945312 C 234.378906 161.675781 234.628906 162.417969 234.886719 163.171875 C 235.304688 164.433594 235.601562 165.746094 235.449219 167.085938 C 235.195312 169.261719 233.703125 171.019531 231.476562 171.289062 C 227.710938 171.734375 224.761719 168.46875 223.050781 165.066406 C 222.992188 166.207031 222.742188 167.316406 222.101562 168.339844 C 220.945312 170.171875 219 171.066406 216.859375 170.675781 C 214.035156 170.160156 211.925781 168.132812 210.460938 165.671875 C 208.878906 167.433594 206.765625 168.667969 204.496094 169.347656 C 200.011719 178.761719 195.820312 188.320312 191.867188 197.972656 C 185.039062 214.660156 178.910156 231.628906 173.300781 248.761719 C 168.621094 263.03125 164.3125 277.417969 160.328125 291.898438 C 162.496094 292.480469 163.957031 294.625 163.503906 296.902344 C 162.964844 299.632812 160.34375 300.378906 157.933594 300.75 C 156.988281 304.3125 156.066406 307.878906 155.160156 311.453125 C 153.960938 316.214844 152.800781 320.992188 151.691406 325.785156 C 151.605469 326.144531 151.339844 326.757812 151.378906 327.121094 C 151.433594 327.535156 151.925781 328.179688 152.09375 328.609375 C 152.585938 329.863281 152.878906 331.214844 152.925781 332.5625 C 153.019531 335.296875 152.035156 337.851562 150.308594 339.9375 C 151.949219 348.179688 145.226562 356.242188 137.851562 359.019531 C 134.988281 360.097656 131.75 360.511719 128.765625 359.703125 C 125.863281 358.90625 123.449219 356.929688 121.660156 354.570312 C 117.386719 348.921875 116.269531 340.324219 119.679688 333.992188 C 120.160156 333.097656 120.753906 332.257812 121.441406 331.503906 C 121.699219 331.222656 122.402344 330.761719 122.554688 330.433594 C 122.707031 330.105469 122.605469 329.644531 122.621094 329.277344 C 122.734375 327.257812 123.410156 325.296875 124.589844 323.65625 C 125.6875 322.128906 127.152344 320.898438 128.8125 320.03125 C 129.199219 319.832031 129.546875 319.738281 129.800781 319.421875 C 129.945312 319.230469 130.03125 318.941406 130.128906 318.722656 C 130.417969 318.109375 130.699219 317.503906 130.984375 316.886719 C 134.375 309.597656 137.644531 302.25 140.832031 294.863281 C 139.046875 292.964844 137.238281 290.542969 138.625 287.910156 C 139.761719 285.746094 142.460938 285.109375 144.5 286.21875 C 147.578125 278.875 150.570312 271.503906 153.457031 264.085938 C 159.644531 248.226562 165.40625 232.195312 170.625 215.996094 C 176.273438 198.464844 181.296875 180.726562 185.335938 162.757812 C 183.972656 160.8125 183.078125 158.546875 182.914062 156.179688 C 180.289062 157.195312 177.433594 157.476562 174.871094 156.210938 C 172.878906 155.230469 171.867188 153.234375 172.121094 151.050781 C 172.261719 149.863281 172.746094 148.859375 173.386719 147.941406 C 169.925781 149.570312 165.554688 150.316406 162.875 147.597656 C 161.222656 145.917969 161.265625 143.449219 162.582031 141.574219 C 163.289062 140.554688 164.257812 139.796875 165.28125 139.121094 C 165.929688 138.695312 166.570312 138.277344 167.25 137.902344 C 164.097656 137.074219 161.078125 135.679688 158.488281 133.703125 C 156.328125 132.050781 154.355469 129.777344 153.867188 127.023438 C 153.453125 124.6875 154.140625 122.011719 156.011719 120.449219 C 158.261719 118.574219 161.648438 118.976562 164.265625 119.675781 C 167.246094 120.46875 169.992188 121.914062 172.785156 123.214844 C 172.933594 120.46875 174.066406 117.925781 176.023438 115.980469 C 170.125 109.53125 165.464844 101.953125 162.847656 93.589844 C 160.226562 85.226562 159.59375 76.164062 161.714844 67.621094 C 162.074219 66.167969 162.316406 64.027344 164.128906 63.753906 C 165.402344 63.558594 166.535156 64.425781 166.71875 65.683594 C 166.886719 66.851562 166.835938 68.066406 166.945312 69.246094 C 167.054688 70.414062 167.203125 71.589844 167.398438 72.75 C 167.78125 75.035156 168.324219 77.289062 169.015625 79.507812 C 173.945312 95.429688 186.039062 108.011719 200.648438 115.617188 C 201.292969 115.949219 200.734375 116.929688 200.09375 116.597656 C 192.421875 112.601562 185.398438 107.296875 179.714844 100.757812 C 174.738281 95.03125 170.832031 88.410156 168.398438 81.226562 C 167.03125 77.042969 166.136719 72.75 165.796875 68.398438 C 165.746094 67.785156 165.714844 67.171875 165.683594 66.550781 C 165.664062 66.125 165.71875 65.617188 165.453125 65.246094 C 165.085938 64.746094 164.300781 64.65625 163.832031 65.050781 C 163.429688 65.386719 163.347656 66.039062 163.210938 66.523438 C 163.054688 67.078125 162.910156 67.628906 162.78125 68.1875 C 162.511719 69.3125 162.292969 70.449219 162.113281 71.589844 C 159.625 87.671875 166.378906 103.890625 177.242188 115.5625 C 177.441406 115.773438 177.484375 116.144531 177.253906 116.359375 C 175.054688 118.34375 173.878906 121.058594 173.945312 124.027344 C 173.953125 124.480469 173.492188 124.699219 173.105469 124.527344 C 168.671875 122.535156 156.773438 115.820312 155.054688 124.382812 C 154.402344 127.648438 156.453125 130.535156 158.871094 132.503906 C 161.796875 134.878906 165.433594 136.394531 169.101562 137.140625 C 169.695312 137.257812 169.609375 138.042969 169.125 138.226562 C 168.066406 138.632812 167.132812 139.261719 166.191406 139.886719 C 165.257812 140.5 164.339844 141.132812 163.671875 142.039062 C 162.355469 143.808594 162.511719 146.128906 164.445312 147.367188 C 166.285156 148.546875 168.707031 148.253906 170.71875 147.714844 C 172.613281 147.199219 174.355469 146.3125 175.921875 145.125 C 176.445312 144.730469 177.039062 145.558594 176.609375 145.996094 C 175.246094 147.417969 173.664062 148.859375 173.316406 150.890625 C 172.957031 153.015625 174.082031 154.773438 176.097656 155.472656 C 179.988281 156.808594 184.296875 154.78125 187.269531 152.351562 C 187.820312 151.898438 188.628906 152.679688 188.078125 153.136719 C 186.914062 154.089844 185.542969 154.992188 184.066406 155.683594 C 184.140625 158.148438 185.089844 160.472656 186.546875 162.445312 C 186.703125 162.660156 186.621094 162.957031 186.441406 163.132812 C 184.148438 173.320312 181.53125 183.433594 178.679688 193.476562 C 173.757812 210.769531 168.121094 227.851562 161.972656 244.742188 C 156.761719 259.058594 151.183594 273.25 145.28125 287.304688 C 145.175781 287.5625 144.738281 287.6875 144.519531 287.515625 C 142.808594 286.234375 140.265625 286.671875 139.46875 288.8125 C 138.667969 290.964844 140.546875 292.914062 141.917969 294.335938 C 142.105469 294.527344 142.113281 294.777344 142.015625 295.011719 C 139.535156 300.765625 137.007812 306.5 134.410156 312.207031 C 133.480469 314.25 132.535156 316.300781 131.578125 318.335938 C 131.253906 319.015625 130.96875 320.167969 130.320312 320.578125 C 129.734375 320.945312 129.046875 321.183594 128.457031 321.5625 C 127.792969 321.992188 127.171875 322.480469 126.617188 323.042969 C 125.585938 324.070312 124.765625 325.324219 124.285156 326.710938 C 124.097656 327.253906 123.957031 327.824219 123.871094 328.394531 C 123.757812 329.113281 123.929688 329.941406 123.785156 330.636719 C 123.664062 331.1875 123.089844 331.472656 122.703125 331.863281 C 122.210938 332.347656 121.761719 332.875 121.375 333.4375 C 120.632812 334.503906 120.097656 335.6875 119.714844 336.933594 C 118.28125 341.558594 118.695312 346.714844 120.835938 351.0625 C 122.613281 354.671875 125.667969 357.960938 129.742188 358.804688 C 133.933594 359.667969 138.394531 358.105469 141.796875 355.695312 C 145.8125 352.847656 149.296875 347.988281 149.480469 342.929688 C 149.507812 342.140625 149.457031 341.347656 149.316406 340.578125 C 149.234375 340.105469 149.097656 339.84375 149.328125 339.425781 C 149.683594 338.789062 150.269531 338.253906 150.640625 337.601562 C 150.953125 337.042969 151.203125 336.457031 151.394531 335.851562 C 152.210938 333.257812 151.832031 330.464844 150.644531 328.054688 C 150.367188 327.484375 150.230469 327.300781 150.363281 326.691406 C 150.441406 326.304688 150.542969 325.921875 150.625 325.539062 C 150.8125 324.746094 150.988281 323.960938 151.175781 323.171875 C 151.675781 321.039062 152.183594 318.917969 152.707031 316.796875 C 154.066406 311.234375 155.488281 305.675781 156.957031 300.144531 C 157.023438 299.882812 157.234375 299.757812 157.492188 299.71875 C 159.398438 299.453125 161.78125 299.0625 162.375 296.910156 C 162.921875 294.921875 161.464844 293.144531 159.511719 292.886719 C 159.214844 292.851562 159.027344 292.476562 159.105469 292.210938 C 161.265625 284.335938 163.523438 276.492188 165.882812 268.679688 C 170.832031 252.300781 176.214844 236.058594 182.144531 220 C 188.5625 202.632812 195.605469 185.488281 203.5625 168.773438 C 203.59375 168.601562 203.703125 168.449219 203.933594 168.386719 C 206.25 167.730469 208.359375 166.488281 209.914062 164.648438 C 209.191406 163.210938 208.671875 161.679688 208.359375 160.257812 C 208.195312 159.550781 209.28125 159.238281 209.433594 159.941406 C 210.269531 163.703125 212.398438 168.097656 216.347656 169.40625 C 218.386719 170.082031 220.324219 169.378906 221.347656 167.460938 C 222.308594 165.65625 221.953125 163.53125 221.753906 161.578125 C 221.691406 160.9375 222.695312 160.804688 222.859375 161.40625 C 223.382812 163.375 224.261719 165.214844 225.511719 166.828125 C 226.757812 168.4375 228.511719 170.128906 230.664062 170.222656 C 233.023438 170.324219 234.457031 168.445312 234.394531 166.199219 C 234.359375 165.105469 234.019531 164.074219 233.675781 163.054688 C 233.328125 162.03125 232.988281 161.027344 232.429688 160.097656 C 232.136719 159.601562 232.695312 159.074219 233.1875 159.324219 C 236.542969 161.003906 240.332031 162.03125 244.101562 161.972656 C 247.230469 161.921875 250.59375 160.882812 252.089844 157.898438 C 255.992188 150.121094 242.425781 148.066406 237.726562 146.902344 C 237.289062 146.792969 237.195312 146.285156 237.464844 145.964844 C 239.300781 143.726562 240.070312 140.855469 239.574219 138.003906 C 239.535156 137.734375 239.632812 137.355469 239.960938 137.304688 C 248.496094 135.964844 256.753906 132.96875 263.933594 128.125 C 271.0625 123.320312 277.078125 116.757812 280.675781 108.910156 C 280.992188 108.230469 281.292969 107.535156 281.558594 106.835938 C 281.6875 106.492188 281.851562 106.152344 281.746094 105.773438 C 281.582031 105.1875 280.894531 104.816406 280.316406 105.003906 C 279.808594 105.160156 279.441406 105.785156 279.113281 106.164062 C 278.746094 106.582031 278.375 107 277.992188 107.414062 C 277.273438 108.195312 276.527344 108.949219 275.757812 109.683594 C 272.707031 112.59375 269.292969 115.117188 265.648438 117.230469 C 252.257812 124.992188 236.226562 126.75 221.160156 123.878906 C 220.449219 123.742188 220.730469 122.652344 221.433594 122.792969 C 230.46875 124.515625 239.851562 124.582031 248.839844 122.570312 C 256.910156 120.757812 264.589844 117.269531 271.136719 112.195312 C 273.082031 110.6875 274.902344 109.023438 276.601562 107.242188 C 277.4375 106.367188 278.175781 105.394531 279.027344 104.542969 C 279.464844 104.097656 280.023438 103.832031 280.644531 103.84375 C 281.835938 103.859375 282.894531 104.855469 282.882812 106.058594 C 282.875 106.949219 282.273438 107.976562 281.90625 108.808594 Z M 281.90625 108.808594 " fill-opacity="1" fill-rule="nonzero"/></g></g></g></g><g clip-path="url(#b008b60f37)"><g clip-path="url(#1eada3389c)"><g clip-path="url(#f94e89a080)"><g clip-path="url(#b60a5922d9)"><path fill="#faefd6" d="M 257.488281 64.519531 C 251.085938 62.308594 249.238281 63.203125 247.027344 69.605469 C 249.238281 63.203125 248.339844 61.359375 241.9375 59.144531 C 248.339844 61.359375 250.1875 60.460938 252.398438 54.058594 C 250.1875 60.460938 251.085938 62.308594 257.488281 64.519531 Z M 239.089844 58.878906 C 235.828125 68.308594 233.109375 69.625 223.683594 66.367188 C 233.117188 69.625 234.433594 72.34375 231.179688 81.765625 C 234.4375 72.339844 237.15625 71.023438 246.582031 74.28125 C 237.15625 71.023438 235.828125 68.308594 239.089844 58.878906 Z M 279.460938 55.269531 C 279.101562 52.761719 278.429688 50.296875 277.070312 48.140625 C 275.660156 45.910156 273.832031 44.027344 271.703125 42.492188 C 271.257812 42.171875 270.558594 42.453125 270.320312 42.894531 C 270.035156 43.417969 270.269531 43.953125 270.722656 44.273438 C 272.574219 45.582031 274.15625 47.308594 275.375 49.214844 C 276.617188 51.164062 277.714844 53.214844 278.257812 55.476562 C 278.414062 56.140625 279.5625 55.960938 279.460938 55.269531 Z M 213.09375 132.183594 C 213.402344 133.082031 213.535156 134.027344 213.539062 134.972656 C 213.542969 135.464844 213.527344 135.855469 213.460938 136.28125 C 213.375 136.847656 213.195312 137.386719 213.171875 137.957031 C 213.117188 139.109375 214.738281 139.363281 215.269531 138.476562 C 215.589844 137.9375 215.683594 137.273438 215.753906 136.65625 C 215.828125 136.03125 215.859375 135.410156 215.808594 134.78125 C 215.703125 133.574219 215.351562 132.433594 214.808594 131.347656 C 213.800781 129.339844 212.164062 127.671875 210.007812 126.949219 C 209.574219 126.808594 209.207031 127.472656 209.578125 127.761719 C 211.074219 128.902344 212.476562 130.371094 213.09375 132.183594 Z M 200.519531 148.464844 C 200.519531 148.464844 200.527344 148.46875 200.519531 148.464844 C 200.578125 148.550781 200.578125 148.550781 200.519531 148.464844 Z M 200.527344 148.46875 C 200.507812 148.449219 200.5 148.429688 200.480469 148.398438 C 200.433594 148.300781 200.359375 148.222656 200.265625 148.164062 C 200.15625 148.070312 200.046875 148.003906 199.917969 147.933594 C 199.726562 147.828125 199.539062 147.722656 199.359375 147.605469 C 198.972656 147.347656 198.882812 147.261719 198.5625 146.910156 C 197.953125 146.265625 197.5 145.671875 197.066406 144.953125 C 196.640625 144.238281 196.234375 143.511719 195.878906 142.753906 C 195.53125 142 195.226562 141.246094 195.214844 140.410156 C 195.195312 139.621094 194.125 139.597656 194.007812 140.355469 C 193.6875 142.375 194.203125 144.320312 195.105469 146.121094 C 195.566406 147.046875 196.121094 147.984375 196.847656 148.726562 C 197.628906 149.511719 198.773438 150.507812 199.953125 150.242188 C 200.8125 150.046875 200.972656 149.105469 200.527344 148.46875 Z M 143.632812 347.765625 C 142.957031 347.5 142.371094 347.773438 141.949219 348.324219 C 141.679688 348.671875 141.496094 349.109375 141.257812 349.484375 C 141.117188 349.699219 140.984375 349.90625 140.835938 350.105469 C 140.691406 350.3125 140.679688 350.332031 140.542969 350.496094 C 139.957031 351.230469 139.292969 351.863281 138.609375 352.496094 C 137.917969 353.144531 137.152344 353.679688 136.371094 354.21875 C 135.984375 354.488281 135.582031 354.734375 135.1875 354.988281 C 134.792969 355.238281 134.421875 355.554688 133.984375 355.71875 C 133.539062 355.882812 133.808594 356.550781 134.238281 356.480469 C 134.738281 356.398438 135.246094 356.441406 135.753906 356.355469 C 136.273438 356.265625 136.769531 356.113281 137.265625 355.941406 C 138.277344 355.585938 139.222656 355.042969 140.101562 354.429688 C 140.96875 353.828125 141.746094 353.089844 142.441406 352.292969 C 143.1875 351.433594 144.03125 350.4375 144.410156 349.347656 C 144.648438 348.71875 144.21875 347.992188 143.632812 347.765625 Z M 143.632812 347.765625 " fill-opacity="1" fill-rule="nonzero"/></g></g></g></g></svg>